<svg xmlns="http://www.w3.org/2000/svg" version="1.0" width="1280.000000pt" height="435.000000pt" viewBox="-3 -3 1286 441" preserveAspectRatio="xMidYMid meet"><g id="deeditor_bgCarrier" stroke-width="0">
    <rect id="dee_c_e" x="-3" y="-3" width="1286" height="441" rx="0" fill="#08a5a7" strokewidth="0"/>
  </g>
<metadata fill="#901144">
Created by potrace 1.15, written by Peter Selinger 2001-2017
</metadata>
<g transform="translate(0.000000,435.000000) scale(0.100000,-0.100000)" fill="#901144" stroke="none">
<path d="M0 4171 l0 -180 53 -3 52 -3 3 -267 2 -268 -55 0 -55 0 0 -1275 0 -1275 55 0 55 0 -2 -267 -3 -268 -52 -3 -53 -3 0 -180 0 -179 6400 0 6400 0 0 2175 0 2175 -6400 0 -6400 0 0 -179z m830 -451 l0 -270 -180 0 -180 0 0 270 0 270 180 0 180 0 0 -270z m730 0 l0 -270 -180 0 -180 0 0 270 0 270 180 0 180 0 0 -270z m728 -2 l2 -268 -180 0 -180 0 0 270 0 270 178 -2 177 -3 3 -267z m720 194 l3 -73 27 5 c70 15 175 26 250 26 l82 0 0 60 0 60 180 0 179 0 3 -67 3 -68 160 -12 c88 -6 170 -12 183 -12 21 -1 22 2 22 79 l0 80 180 0 180 0 0 -90 0 -90 183 0 182 0 0 87 0 88 180 0 180 0 3 -70 3 -70 105 3 c168 7 194 -13 194 -148 0 -154 -53 -314 -144 -438 -102 -138 -251 -212 -426 -212 -101 0 -219 26 -451 99 -290 90 -385 112 -526 118 -68 3 -123 3 -123 1 0 -3 -27 -133 -59 -289 -81 -386 -133 -669 -127 -684 12 -33 229 -46 380 -23 71 11 80 10 91 -5 46 -63 5 -320 -68 -429 -34 -50 -68 -62 -192 -66 -81 -2 -136 2 -210 16 -55 11 -103 17 -106 14 -3 -4 -23 -83 -43 -177 -66 -300 -204 -840 -231 -906 -59 -139 -121 -205 -205 -216 l-39 -6 -3 -66 -3 -66 -177 -3 -178 -2 0 140 c0 117 -4 151 -21 203 -18 52 -20 78 -16 167 5 108 29 224 261 1235 46 204 121 537 165 740 45 204 88 399 96 435 8 35 12 66 10 68 -2 2 -48 6 -103 9 -89 5 -105 3 -146 -16 -126 -62 -180 -258 -195 -711 -8 -249 -15 -286 -64 -339 -68 -73 -234 -67 -339 13 -96 74 -135 204 -125 416 14 283 74 477 214 688 56 85 163 199 227 243 l36 24 0 158 0 157 178 -2 177 -3 3 -73z m2902 -192 l0 -270 -180 0 -180 0 0 270 0 270 180 0 180 0 0 -270z m730 211 l0 -58 82 -8 c67 -5 153 -23 268 -56 12 -3 15 11 17 86 l1 90 176 3 176 2 0 -270 0 -270 -129 0 c-77 0 -132 -4 -136 -10 -16 -26 -341 -1297 -399 -1560 -98 -445 -109 -648 -42 -765 32 -57 65 -78 128 -78 67 -1 107 20 178 92 55 57 151 225 200 351 50 129 125 200 213 200 59 0 82 -11 103 -52 21 -40 15 -180 -10 -253 -25 -72 -146 -318 -194 -398 -23 -37 -42 -70 -42 -72 0 -3 29 -5 65 -5 l65 0 0 -270 0 -270 -176 2 -175 3 0 148 c0 81 -2 147 -4 147 -2 0 -33 -20 -68 -45 -80 -55 -175 -101 -244 -116 l-53 -12 0 -64 0 -63 -180 0 -180 0 0 73 0 72 -63 30 c-86 41 -193 149 -235 237 -63 129 -80 303 -53 518 57 445 212 1238 361 1845 37 154 70 287 72 295 2 11 -8 16 -39 18 l-43 3 0 270 0 269 180 0 180 0 0 -59z m1450 -211 l0 -270 -180 0 -180 0 0 270 0 270 180 0 180 0 0 -270z m728 -2 l2 -268 -180 0 -180 0 0 270 0 270 178 -2 177 -3 3 -267z m722 2 l0 -270 -180 0 -180 0 0 263 c0 145 3 267 7 270 3 4 84 7 180 7 l173 0 0 -270z m730 0 l0 -270 -180 0 -180 0 0 270 0 270 180 0 180 0 0 -270z m728 -2 l2 -268 -180 0 -180 0 0 270 0 270 178 -2 177 -3 3 -267z m702 2 l0 -270 -180 0 -180 0 0 270 0 270 180 0 180 0 0 -270z m730 0 l0 -270 -180 0 -180 0 0 270 0 270 180 0 180 0 0 -270z m-3110 -980 c125 -42 215 -114 246 -198 10 -26 19 -49 21 -51 1 -2 24 14 50 36 112 93 236 163 370 210 71 24 92 27 223 27 169 1 237 -15 330 -75 188 -121 212 -359 89 -891 -17 -73 -42 -180 -55 -238 -30 -125 -43 -332 -25 -398 17 -60 61 -107 115 -121 45 -11 87 -4 101 18 3 6 13 11 22 11 13 0 15 -11 10 -67 -2 -38 -8 -76 -12 -85 -7 -16 2 -18 94 -18 l101 0 -2 -267 -3 -268 -177 -3 -178 -2 0 125 0 125 -60 -44 c-79 -58 -154 -86 -241 -89 l-69 -2 0 -57 0 -58 -180 0 -180 0 0 187 c0 132 -5 209 -16 266 -13 62 -15 116 -11 236 5 165 20 257 98 601 78 341 93 461 65 505 -14 21 -24 25 -65 25 -108 0 -194 -46 -268 -144 -93 -123 -167 -325 -218 -596 -26 -139 -92 -470 -102 -517 -5 -22 -3 -23 71 -23 l76 0 0 -270 0 -270 -177 2 -178 3 -3 78 c-3 70 -5 78 -20 70 -9 -4 -60 -8 -112 -8 -86 0 -101 3 -162 32 l-67 32 -3 -102 -3 -102 -177 -3 -178 -2 0 270 0 270 113 0 113 0 18 108 c15 94 40 197 166 687 56 218 77 414 51 463 -10 18 -21 22 -60 22 -149 0 -258 -90 -356 -295 -61 -126 -105 -288 -169 -617 -81 -414 -136 -590 -216 -690 -28 -35 -30 -42 -30 -127 l0 -91 -180 0 -180 0 0 93 0 92 -54 47 c-73 64 -110 139 -109 222 1 73 345 1733 384 1855 15 45 70 68 193 81 245 25 427 -57 430 -195 1 -25 3 -45 6 -45 3 0 26 21 50 46 96 98 223 172 342 199 90 21 264 13 348 -15z m-4455 -10 c44 -10 106 -28 138 -40 65 -24 137 -86 137 -117 0 -12 -23 -101 -51 -199 -74 -262 -175 -676 -199 -819 -35 -205 -28 -352 21 -447 31 -61 109 -88 180 -64 101 35 177 123 265 307 144 301 160 320 267 327 59 4 64 2 92 -28 29 -30 30 -35 30 -118 0 -99 -12 -140 -86 -305 -115 -255 -251 -445 -406 -569 l-62 -49 -3 -122 -3 -122 -180 0 -180 0 -1 54 -1 53 -93 4 c-96 5 -192 24 -242 50 l-28 15 0 -91 0 -90 -180 0 -180 0 0 270 0 270 46 0 c45 0 46 1 40 28 -3 15 -9 72 -12 127 -13 209 81 826 196 1285 58 234 102 336 161 378 62 43 178 47 334 12z m-4035 -2100 l0 -270 -180 0 -180 0 0 270 0 270 180 0 180 0 0 -270z m730 0 l0 -270 -180 0 -180 0 0 270 0 270 180 0 180 0 0 -270z m728 3 l-3 -268 -177 -3 -178 -2 0 270 0 270 180 0 180 0 -2 -267z m1442 -3 l0 -270 -180 0 -180 0 0 270 0 270 180 0 180 0 0 -270z m2180 0 l0 -270 -180 0 -180 0 0 270 0 270 180 0 180 0 0 -270z m5790 0 l0 -270 -180 0 -180 0 0 270 0 270 180 0 180 0 0 -270z m730 0 l0 -270 -180 0 -180 0 0 270 0 270 180 0 180 0 0 -270z" fill="#901144"/>
</g>
</svg>